<?xml version="1.0" encoding="UTF-8"?>
<svg width="243px" height="71px" viewBox="0 0 243 71" version="1.1" xmlns="http://www.w3.org/2000/svg" xmlns:xlink="http://www.w3.org/1999/xlink">
    <!-- Generator: Sketch 52 (66869) - http://www.bohemiancoding.com/sketch -->
    <title>限时特价</title>
    <desc>Created with Sketch.</desc>
    <g id="活动专区落地页及活动标签" stroke="none" stroke-width="1" fill="none" fill-rule="evenodd">
        <g id="限时特价" transform="translate(-562.000000, -224.000000)">
            <g transform="translate(562.000000, 224.000000)">
                <g id="分组-6" transform="translate(2.000000, 10.000000)" stroke="#FFFFFF" stroke-linecap="square">
                    <path d="M7.5,1.99667393 L2.07317602,7.5" id="直线"></path>
                    <path d="M3.88211735,1.57959427 L0.264234695,5.19747692" id="直线-copy"></path>
                    <path d="M7.5,5.30561526 L0.91375359,12.5829203" id="直线-2"></path>
                    <path d="M13.5,3.37879128 L3.88211735,13.5" id="直线-2-copy"></path>
                </g>
                <g id="分组-6-copy" transform="translate(233.000000, 52.000000) scale(-1, -1) translate(-233.000000, -52.000000) translate(226.000000, 45.000000)" stroke="#FFFFFF" stroke-linecap="square">
                    <path d="M7.5,1.99667393 L2.07317602,7.5" id="直线"></path>
                    <path d="M3.88211735,1.57959427 L0.264234695,5.19747692" id="直线-copy"></path>
                    <path d="M8.29919701,5.19747692 L0.91375359,12.5829203" id="直线-2"></path>
                    <path d="M13.7801159,3.60200147 L3.88211735,13.5" id="直线-2-copy"></path>
                </g>
                <path d="M219.518147,9.5 L221.336682,60.5 L242.5,60.5 L242.5,9.5 L219.518147,9.5 Z" id="矩形" stroke="#FFFFFF"></path>
                <path d="M0.518146542,9.5 L2.33668191,60.5 L23.5,60.5 L23.5,9.5 L0.518146542,9.5 Z" id="矩形-copy" stroke="#FFFFFF" transform="translate(12.000000, 35.000000) scale(-1, 1) translate(-12.000000, -35.000000) "></path>
                <g id="分组-4" transform="translate(27.000000, 46.000000)" fill="#FFFFFF">
                    <circle id="椭圆形" cx="93.5" cy="14.5" r="3.5"></circle>
                    <text id="--手快有-手慢无--" font-family="PingFangSC-Regular, PingFang SC" font-size="21" font-weight="normal">
                        <tspan x="0.3125" y="22">- 手快有   手慢无 -</tspan>
                    </text>
                </g>
                <g id="Group-8-Copy" transform="translate(36.000000, 0.000000)" fill="#FFFFFF">
                    <path d="M29.9957369,5.81207638 L29.186808,8.79855696 L38.0686838,8.79855696 L38.8776126,5.81207638 L29.9957369,5.81207638 Z M34.1602226,16.4299249 C35.4703061,16.5404854 36.2765113,15.8258873 36.5870093,14.2726478 L36.8552904,13.2803003 L27.9734146,13.2803003 L27.1209071,16.4299249 L34.1602226,16.4299249 Z M39.087335,33.5209533 L38.0087631,37.5051745 C32.0902362,35.8427228 28.4527799,32.9708476 27.1045651,28.8774142 L25.8026526,33.686794 C23.0381313,35.2346403 19.4061223,36.6732745 14.9147966,38 L24.8847771,1.16584068 L46,1.16584068 L42.2277222,15.1031995 C41.2294985,19.1966329 38.7373438,21.1894177 34.7471727,21.0761606 L25.8639351,21.0761606 L23.3949316,30.2027913 C23.6468707,30.0949275 23.897448,29.984367 24.1548345,29.87111 C25.138078,29.5394286 26.1349399,29.1511187 27.1495056,28.7075286 C26.5121677,26.9385613 26.1580911,24.7287005 26.0968086,22.072553 L32.4647404,22.072553 C32.5750488,23.7309598 32.7030612,25.1156621 32.8501391,26.222615 C34.2351235,25.223526 35.5057138,23.8442169 36.655101,22.072553 L42.351649,22.072553 C40.1032625,25.8356534 37.4476878,28.4351724 34.3781159,29.87111 C35.3586358,31.1978354 36.9274676,32.416697 39.087335,33.5209533 Z M17.5799041,15.7665622 C18.6775416,18.3121493 18.8110012,21.1314409 17.972112,24.2284819 C16.4155367,29.984367 13.0123157,32.8575906 7.7610871,32.8575906 L9.19782107,27.5493404 C10.8429155,27.6572043 12.0249867,26.3857591 12.7440346,23.7309598 C13.6006276,20.9682968 13.4658061,18.3687778 12.340932,15.9324029 C13.9519806,13.2803003 15.4377405,9.84888128 16.8009355,5.6462357 L14.6220025,5.6462357 L5.86541536,38 L0,38 L10.0135591,1 L23.7558174,1 L22.4988454,5.6462357 C21.0553023,9.74101742 19.4129315,13.111763 17.5799041,15.7665622 Z" id="Fill-1"></path>
                    <path d="M72.7289078,13.7236232 C73.2024612,16.9597495 73.2160691,20.8607774 72.7710922,25.4362249 L66.0719441,25.4362249 C66.7455331,22.0872421 66.9537333,18.1834947 66.7006271,13.7236232 L72.7289078,13.7236232 Z M88.133002,0 L86.6497456,5.52317024 L90,5.52317024 L88.6990889,10.3746403 L85.3501952,10.3746403 L79.6063188,31.7929017 C78.6619335,36.1426362 76.1540054,38.2066865 72.0852562,37.9836929 L64.8839782,37.9836929 L66.0950775,33.4667132 L69.7800852,33.4667132 C71.1190983,33.4667132 71.8947462,32.8548406 72.1151935,31.6256565 L77.814164,10.3746403 L67.7661224,10.3746403 L69.0670335,5.52317024 L79.1137144,5.52317024 L80.5969708,0 L88.133002,0 Z M58.1576145,6.86113172 L55.7354159,15.8964508 L58.9182937,15.8964508 L61.3404922,6.86113172 L58.1576145,6.86113172 Z M55.3271802,29.2815045 L57.7058336,20.4147903 L54.5243166,20.4147903 L51.696604,30.9593952 L53.2043545,30.9593952 C54.318838,30.9593952 55.0291681,30.4019112 55.3271802,29.2815045 Z M44,35.3091297 L52.9294758,2.00830193 L68.8384215,2.00830193 L61.5228375,29.2815045 C60.6097503,33.5251811 58.1154301,35.5294038 54.0466809,35.3091297 L44,35.3091297 Z" id="Fill-4"></path>
                    <path d="M109.547111,7.40296197 L110.790835,2.79649629 L117.251737,2.79649629 L118.005509,0 L125.128655,0 L124.373537,2.79649629 L131,2.79649629 L129.756276,7.40296197 L123.129813,7.40296197 L121.974926,11.6792486 L130.258342,11.6792486 L128.927127,16.6145566 L105.57231,16.6145566 L106.902179,11.6792486 L114.853127,11.6792486 L116.006668,7.40296197 L109.547111,7.40296197 Z M109.999374,25.9905723 C110.50817,28.1882014 110.622582,30.4352904 110.331841,32.7358497 L104.037845,32.7358497 C104.3407,31.2039258 104.395887,28.9555001 104.20206,25.9905723 L109.999374,25.9905723 Z M125.136731,17.7695149 L124.516215,20.0700742 L127.664559,20.0700742 L126.420835,24.6752032 L123.272491,24.6752032 L121.277687,32.0781651 C120.219715,35.5871531 117.961091,37.3957857 114.511238,37.5080733 L108.879484,37.5080733 L110.033024,33.2317867 L112.51778,33.2317867 C113.590559,33.3387273 114.322795,32.6837162 114.706411,31.2560594 L116.481813,24.6752032 L103.893821,24.6752032 L105.137545,20.0700742 L117.725537,20.0700742 L118.344707,17.7695149 L125.136731,17.7695149 Z M90.8562574,38 L94.1863144,25.66173 C93.3827396,25.7740177 92.1793965,25.9384388 90.5735929,26.157667 C89.4402429,26.2646076 88.5828273,26.3768952 88,26.4838358 L89.50889,20.89218 C91.1954548,20.7852394 93.2266011,20.6208182 95.606367,20.3989165 L98.3132161,10.3638794 L96.8231703,10.3638794 C95.3021662,13.5466986 92.9937394,15.9555352 89.9019283,17.6024202 L91.144306,12.9959546 C92.7285732,10.8023358 94.1445877,7.18640729 95.3963877,2.14014845 L99.7050022,2.14014845 C99.318694,3.56379498 98.9202717,4.8283674 98.5191573,5.92317163 L99.5125211,5.92317163 L101.110249,0 L107.735366,0 L106.137639,5.92317163 L108.124366,5.92317163 L106.927753,10.3638794 L104.939679,10.3638794 L102.543761,19.2493052 C102.791429,19.1396911 103.263883,19.0274035 103.957084,18.9177894 C104.315126,18.8108488 104.553371,18.7533683 104.663745,18.7533683 L103.421367,23.3611707 C103.059288,23.4694481 102.518187,23.6338692 101.796719,23.8530974 C101.543667,23.965385 101.363301,24.0175186 101.255619,24.0175186 L97.4827208,38 L90.8562574,38 Z" id="Fill-7"></path>
                    <path d="M168.186012,14.3113237 L161.920903,37.1765575 L155.024225,37.1765575 L161.289334,14.3113237 L168.186012,14.3113237 Z M156.410396,14.3113237 L153.390622,25.3328877 C152.01402,31.5849017 147.60124,35.8063813 140.16185,38 L141.379876,33.5579555 C143.848736,31.9164175 145.444063,29.5583776 146.175425,26.4838358 L149.513718,14.3113237 C148.156255,14.7497801 146.566396,15.2430436 144.734573,15.7911141 L145.90612,11.5148275 C152.100143,8.55391002 156.685169,4.7187533 159.659832,0 L166.557876,0 C167.056843,4.7187533 169.53664,8.55391002 174,11.5148275 L172.828453,15.7911141 C166.83265,13.9303479 162.927039,11.1859852 161.118455,7.56738312 C157.442505,10.7502023 153.632586,12.9959546 149.681863,14.3113237 L156.410396,14.3113237 Z M131,37.6738312 L137.129773,15.2978506 C135.8598,15.8485946 134.391607,16.2883878 132.73203,16.6145566 L133.859832,12.5013543 C137.653346,10.5283006 141.018979,6.41910859 143.970402,0.164421149 L151.035225,0.164421149 C149.202035,3.56379498 147.471372,6.41910859 145.830933,8.71833116 L137.896678,37.6738312 L131,37.6738312 Z" id="Fill-10"></path>
                </g>
            </g>
        </g>
    </g>
</svg>